<svg xmlns="http://www.w3.org/2000/svg" xmlns:xlink="http://www.w3.org/1999/xlink" width="300" zoomAndPan="magnify" viewBox="0 0 224.87999 112.499997" height="150" preserveAspectRatio="xMidYMid meet" version="1.0"><defs><g/><clipPath id="2caa73dc93"><path d="M 81.765625 0 L 142.992188 0 L 142.992188 61.226562 L 81.765625 61.226562 Z M 81.765625 0 " clip-rule="nonzero"/></clipPath></defs><g clip-path="url(#2caa73dc93)"><path fill="#ffffff" d="M 143.101562 0 L 143.101562 30.671875 L 112.425781 0 Z M 81.765625 0 L 112.425781 30.671875 L 112.425781 0 Z M 143.101562 61.335938 L 143.101562 30.671875 L 112.425781 30.671875 Z M 112.425781 61.335938 L 112.425781 30.671875 L 81.765625 30.671875 Z M 112.425781 61.335938 " fill-opacity="1" fill-rule="nonzero"/></g><g fill="#ffffff" fill-opacity="1"><g transform="translate(38.655212, 99.047497)"><g><path d="M 6.46875 -25.765625 L 8.96875 -25.765625 C 9.382812 -25.765625 9.640625 -25.695312 9.734375 -25.5625 C 9.835938 -25.425781 9.890625 -25.195312 9.890625 -24.875 L 9.890625 -0.953125 C 9.890625 -0.597656 9.816406 -0.347656 9.671875 -0.203125 C 9.535156 -0.0664062 9.289062 0 8.9375 0 L 5.75 0 C 5.40625 0 5.160156 -0.0664062 5.015625 -0.203125 C 4.867188 -0.347656 4.796875 -0.597656 4.796875 -0.953125 L 4.796875 -24.03125 C 4.796875 -24.519531 4.96875 -24.929688 5.3125 -25.265625 C 5.65625 -25.597656 6.039062 -25.765625 6.46875 -25.765625 Z M 6.46875 -25.765625 "/></g></g></g><g fill="#ffffff" fill-opacity="1"><g transform="translate(52.601697, 99.047497)"><g><path d="M 5.640625 -25.765625 L 8.1875 -25.765625 C 8.5625 -25.765625 8.90625 -25.628906 9.21875 -25.359375 C 9.539062 -25.097656 9.742188 -24.742188 9.828125 -24.296875 L 12.421875 -15.09375 L 11.546875 -24.03125 L 11.546875 -24.125 C 11.546875 -24.59375 11.71875 -24.984375 12.0625 -25.296875 C 12.414062 -25.609375 12.789062 -25.765625 13.1875 -25.765625 L 15.734375 -25.765625 C 16.117188 -25.765625 16.363281 -25.695312 16.46875 -25.5625 C 16.582031 -25.425781 16.640625 -25.195312 16.640625 -24.875 L 16.640625 -0.984375 C 16.640625 -0.617188 16.566406 -0.363281 16.421875 -0.21875 C 16.273438 -0.0703125 16.023438 0 15.671875 0 L 13.265625 0 C 12.816406 0 12.4375 -0.148438 12.125 -0.453125 C 11.8125 -0.753906 11.617188 -1.109375 11.546875 -1.515625 L 8.96875 -10.609375 L 9.859375 -1.765625 L 9.859375 -1.6875 C 9.859375 -1.21875 9.6875 -0.816406 9.34375 -0.484375 C 9.007812 -0.160156 8.59375 0 8.09375 0 L 5.734375 0 C 5.378906 0 5.125 -0.0703125 4.96875 -0.21875 C 4.820312 -0.363281 4.75 -0.617188 4.75 -0.984375 L 4.75 -24.875 C 4.75 -25.195312 4.800781 -25.425781 4.90625 -25.5625 C 5.007812 -25.695312 5.253906 -25.765625 5.640625 -25.765625 Z M 5.640625 -25.765625 "/></g></g></g><g fill="#ffffff" fill-opacity="1"><g transform="translate(73.276179, 99.047497)"><g><path d="M 5.0625 -25.765625 L 14.5 -25.765625 C 14.789062 -25.765625 15.023438 -25.6875 15.203125 -25.53125 C 15.390625 -25.375 15.484375 -25.144531 15.484375 -24.84375 L 15.484375 -24.078125 C 15.484375 -23.285156 15.296875 -22.664062 14.921875 -22.21875 C 14.546875 -21.769531 14.015625 -21.546875 13.328125 -21.546875 L 12.421875 -21.546875 L 12.421875 -0.921875 C 12.421875 -0.566406 12.351562 -0.320312 12.21875 -0.1875 C 12.082031 -0.0625 11.84375 0 11.5 0 L 8.25 0 C 7.882812 0 7.640625 -0.0625 7.515625 -0.1875 C 7.390625 -0.320312 7.328125 -0.566406 7.328125 -0.921875 L 7.328125 -21.546875 L 6.234375 -21.546875 C 5.523438 -21.546875 4.984375 -21.769531 4.609375 -22.21875 C 4.242188 -22.664062 4.0625 -23.285156 4.0625 -24.078125 L 4.0625 -24.84375 C 4.0625 -25.144531 4.15625 -25.375 4.34375 -25.53125 C 4.539062 -25.6875 4.78125 -25.765625 5.0625 -25.765625 Z M 5.0625 -25.765625 "/></g></g></g><g fill="#ffffff" fill-opacity="1"><g transform="translate(92.033851, 99.047497)"><g><path d="M 9.890625 -10.65625 L 9.890625 -4.21875 L 12.015625 -4.21875 C 12.710938 -4.21875 13.25 -3.992188 13.625 -3.546875 C 14 -3.097656 14.1875 -2.476562 14.1875 -1.6875 L 14.1875 -0.921875 C 14.1875 -0.628906 14.09375 -0.398438 13.90625 -0.234375 C 13.71875 -0.078125 13.476562 0 13.1875 0 L 5.671875 0 C 5.328125 0 5.09375 -0.0664062 4.96875 -0.203125 C 4.851562 -0.335938 4.796875 -0.578125 4.796875 -0.921875 L 4.796875 -24.8125 C 4.796875 -25.164062 4.859375 -25.410156 4.984375 -25.546875 C 5.109375 -25.691406 5.351562 -25.765625 5.71875 -25.765625 L 13.1875 -25.765625 C 13.476562 -25.765625 13.71875 -25.6875 13.90625 -25.53125 C 14.09375 -25.375 14.1875 -25.144531 14.1875 -24.84375 L 14.1875 -24.078125 C 14.1875 -23.296875 14 -22.675781 13.625 -22.21875 C 13.25 -21.769531 12.710938 -21.546875 12.015625 -21.546875 L 9.890625 -21.546875 L 9.890625 -14.875 L 12.390625 -14.875 C 12.679688 -14.875 12.921875 -14.796875 13.109375 -14.640625 C 13.296875 -14.484375 13.390625 -14.253906 13.390625 -13.953125 L 13.390625 -13.1875 C 13.390625 -12.40625 13.203125 -11.785156 12.828125 -11.328125 C 12.453125 -10.878906 11.921875 -10.65625 11.234375 -10.65625 Z M 9.890625 -10.65625 "/></g></g></g><g fill="#ffffff" fill-opacity="1"><g transform="translate(110.005631, 99.047497)"><g><path d="M 8.171875 0 L 5.6875 0 C 5.320312 0 5.070312 -0.0664062 4.9375 -0.203125 C 4.8125 -0.347656 4.75 -0.597656 4.75 -0.953125 L 4.75 -24.8125 C 4.75 -25.164062 4.8125 -25.410156 4.9375 -25.546875 C 5.070312 -25.691406 5.316406 -25.765625 5.671875 -25.765625 L 10.890625 -25.765625 C 12.066406 -25.765625 13.101562 -25.535156 14 -25.078125 C 14.894531 -24.617188 15.59375 -24.007812 16.09375 -23.25 C 16.601562 -22.488281 16.859375 -21.65625 16.859375 -20.75 L 16.859375 -14.4375 C 16.859375 -13.6875 16.664062 -13.0625 16.28125 -12.5625 C 15.90625 -12.0625 15.382812 -11.664062 14.71875 -11.375 C 15.382812 -11.1875 15.90625 -10.890625 16.28125 -10.484375 C 16.664062 -10.078125 16.859375 -9.484375 16.859375 -8.703125 L 16.859375 -0.953125 C 16.859375 -0.597656 16.789062 -0.347656 16.65625 -0.203125 C 16.53125 -0.0664062 16.28125 0 15.90625 0 L 13.421875 0 C 12.992188 0 12.609375 -0.164062 12.265625 -0.5 C 11.921875 -0.832031 11.75 -1.234375 11.75 -1.703125 L 11.75 -8.671875 C 11.75 -8.859375 11.648438 -9.046875 11.453125 -9.234375 C 11.265625 -9.421875 11.046875 -9.515625 10.796875 -9.515625 L 9.859375 -9.515625 L 9.859375 -1.703125 C 9.859375 -1.234375 9.679688 -0.832031 9.328125 -0.5 C 8.984375 -0.164062 8.597656 0 8.171875 0 Z M 10.796875 -21.546875 L 9.859375 -21.546875 L 9.859375 -13.703125 L 10.859375 -13.703125 C 11.066406 -13.703125 11.265625 -13.789062 11.453125 -13.96875 C 11.648438 -14.15625 11.75 -14.332031 11.75 -14.5 L 11.75 -20.703125 C 11.75 -20.898438 11.648438 -21.085938 11.453125 -21.265625 C 11.265625 -21.453125 11.046875 -21.546875 10.796875 -21.546875 Z M 10.796875 -21.546875 "/></g></g></g><g fill="#ffffff" fill-opacity="1"><g transform="translate(130.852622, 99.047497)"><g><path d="M 4.75 -0.90625 L 4.75 -24.8125 C 4.75 -25.164062 4.8125 -25.410156 4.9375 -25.546875 C 5.070312 -25.691406 5.316406 -25.765625 5.671875 -25.765625 L 8.171875 -25.765625 C 8.585938 -25.765625 8.972656 -25.597656 9.328125 -25.265625 C 9.679688 -24.929688 9.859375 -24.53125 9.859375 -24.0625 L 9.859375 -4.21875 L 11.984375 -4.21875 C 12.679688 -4.21875 13.21875 -3.992188 13.59375 -3.546875 C 13.96875 -3.109375 14.15625 -2.488281 14.15625 -1.6875 L 14.15625 -0.921875 C 14.15625 -0.628906 14.0625 -0.398438 13.875 -0.234375 C 13.6875 -0.078125 13.445312 0 13.15625 0 L 5.671875 0 C 5.316406 0 5.070312 -0.0664062 4.9375 -0.203125 C 4.8125 -0.347656 4.75 -0.582031 4.75 -0.90625 Z M 4.75 -0.90625 "/></g></g></g><g fill="#ffffff" fill-opacity="1"><g transform="translate(148.786072, 99.047497)"><g><path d="M 9.890625 -10.65625 L 9.890625 -4.21875 L 12.015625 -4.21875 C 12.710938 -4.21875 13.25 -3.992188 13.625 -3.546875 C 14 -3.097656 14.1875 -2.476562 14.1875 -1.6875 L 14.1875 -0.921875 C 14.1875 -0.628906 14.09375 -0.398438 13.90625 -0.234375 C 13.71875 -0.078125 13.476562 0 13.1875 0 L 5.671875 0 C 5.328125 0 5.09375 -0.0664062 4.96875 -0.203125 C 4.851562 -0.335938 4.796875 -0.578125 4.796875 -0.921875 L 4.796875 -24.8125 C 4.796875 -25.164062 4.859375 -25.410156 4.984375 -25.546875 C 5.109375 -25.691406 5.351562 -25.765625 5.71875 -25.765625 L 13.1875 -25.765625 C 13.476562 -25.765625 13.71875 -25.6875 13.90625 -25.53125 C 14.09375 -25.375 14.1875 -25.144531 14.1875 -24.84375 L 14.1875 -24.078125 C 14.1875 -23.296875 14 -22.675781 13.625 -22.21875 C 13.25 -21.769531 12.710938 -21.546875 12.015625 -21.546875 L 9.890625 -21.546875 L 9.890625 -14.875 L 12.390625 -14.875 C 12.679688 -14.875 12.921875 -14.796875 13.109375 -14.640625 C 13.296875 -14.484375 13.390625 -14.253906 13.390625 -13.953125 L 13.390625 -13.1875 C 13.390625 -12.40625 13.203125 -11.785156 12.828125 -11.328125 C 12.453125 -10.878906 11.921875 -10.65625 11.234375 -10.65625 Z M 9.890625 -10.65625 "/></g></g></g><g fill="#ffffff" fill-opacity="1"><g transform="translate(166.757852, 99.047497)"><g><path d="M 3.953125 -0.8125 C 3.953125 -0.851562 3.953125 -0.894531 3.953125 -0.9375 C 3.953125 -0.988281 3.957031 -1.039062 3.96875 -1.09375 L 6.09375 -12.890625 L 3.96875 -24.671875 C 3.957031 -24.722656 3.953125 -24.769531 3.953125 -24.8125 C 3.953125 -24.863281 3.953125 -24.914062 3.953125 -24.96875 C 3.953125 -25.21875 4.019531 -25.410156 4.15625 -25.546875 C 4.289062 -25.691406 4.53125 -25.765625 4.875 -25.765625 L 7.125 -25.765625 C 7.40625 -25.765625 7.695312 -25.6875 8 -25.53125 C 8.300781 -25.382812 8.5625 -25.175781 8.78125 -24.90625 C 9.007812 -24.644531 9.128906 -24.351562 9.140625 -24.03125 L 9.71875 -14.453125 L 10.3125 -24.03125 C 10.34375 -24.351562 10.460938 -24.644531 10.671875 -24.90625 C 10.890625 -25.175781 11.15625 -25.382812 11.46875 -25.53125 C 11.78125 -25.6875 12.070312 -25.765625 12.34375 -25.765625 L 14.609375 -25.765625 C 15.222656 -25.765625 15.53125 -25.488281 15.53125 -24.9375 C 15.53125 -24.90625 15.53125 -24.863281 15.53125 -24.8125 C 15.53125 -24.769531 15.523438 -24.722656 15.515625 -24.671875 L 13.390625 -12.890625 L 15.515625 -1.09375 C 15.523438 -1.039062 15.53125 -0.988281 15.53125 -0.9375 C 15.53125 -0.894531 15.53125 -0.859375 15.53125 -0.828125 C 15.53125 -0.273438 15.222656 0 14.609375 0 L 12.34375 0 C 12.070312 0 11.78125 -0.0703125 11.46875 -0.21875 C 11.15625 -0.375 10.890625 -0.582031 10.671875 -0.84375 C 10.460938 -1.113281 10.34375 -1.414062 10.3125 -1.75 L 9.71875 -11.3125 L 9.140625 -1.75 C 9.128906 -1.414062 9.007812 -1.113281 8.78125 -0.84375 C 8.5625 -0.582031 8.300781 -0.375 8 -0.21875 C 7.695312 -0.0703125 7.40625 0 7.125 0 L 4.875 0 C 4.53125 0 4.289062 -0.0703125 4.15625 -0.21875 C 4.019531 -0.363281 3.953125 -0.5625 3.953125 -0.8125 Z M 3.953125 -0.8125 "/></g></g></g></svg>