<svg xmlns="http://www.w3.org/2000/svg" xmlns:xlink="http://www.w3.org/1999/xlink" width="300" zoomAndPan="magnify" viewBox="0 0 224.87999 112.499997" height="150" preserveAspectRatio="xMidYMid meet" version="1.0"><defs><g/><clipPath id="143974e01c"><path d="M 0.4375 37.371094 L 30.304688 37.371094 L 30.304688 67.238281 L 0.4375 67.238281 Z M 0.4375 37.371094 " clip-rule="nonzero"/></clipPath></defs><g clip-path="url(#143974e01c)"><path fill="#ffffff" d="M 30.078125 37.371094 L 30.078125 52.191406 L 15.253906 37.371094 Z M 0.4375 37.371094 L 15.253906 52.191406 L 15.253906 37.371094 Z M 30.078125 67.011719 L 30.078125 52.191406 L 15.253906 52.191406 Z M 15.253906 67.011719 L 15.253906 52.191406 L 0.4375 52.191406 Z M 15.253906 67.011719 " fill-opacity="1" fill-rule="nonzero"/></g><g fill="#ffffff" fill-opacity="1"><g transform="translate(50.817415, 66.644588)"><g><path d="M 7.34375 -29.28125 L 10.203125 -29.28125 C 10.660156 -29.28125 10.945312 -29.203125 11.0625 -29.046875 C 11.175781 -28.898438 11.234375 -28.632812 11.234375 -28.25 L 11.234375 -1.09375 C 11.234375 -0.6875 11.15625 -0.398438 11 -0.234375 C 10.84375 -0.078125 10.5625 0 10.15625 0 L 6.53125 0 C 6.144531 0 5.867188 -0.078125 5.703125 -0.234375 C 5.535156 -0.398438 5.453125 -0.6875 5.453125 -1.09375 L 5.453125 -27.296875 C 5.453125 -27.859375 5.644531 -28.328125 6.03125 -28.703125 C 6.425781 -29.085938 6.863281 -29.28125 7.34375 -29.28125 Z M 7.34375 -29.28125 "/></g></g></g><g fill="#ffffff" fill-opacity="1"><g transform="translate(66.665918, 66.644588)"><g><path d="M 6.40625 -29.28125 L 9.296875 -29.28125 C 9.722656 -29.28125 10.117188 -29.125 10.484375 -28.8125 C 10.847656 -28.507812 11.078125 -28.109375 11.171875 -27.609375 L 14.109375 -17.140625 L 13.109375 -27.296875 L 13.109375 -27.40625 C 13.109375 -27.945312 13.304688 -28.394531 13.703125 -28.75 C 14.109375 -29.101562 14.535156 -29.28125 14.984375 -29.28125 L 17.890625 -29.28125 C 18.328125 -29.28125 18.601562 -29.203125 18.71875 -29.046875 C 18.84375 -28.898438 18.90625 -28.632812 18.90625 -28.25 L 18.90625 -1.109375 C 18.90625 -0.703125 18.820312 -0.414062 18.65625 -0.25 C 18.488281 -0.0820312 18.203125 0 17.796875 0 L 15.078125 0 C 14.566406 0 14.132812 -0.171875 13.78125 -0.515625 C 13.425781 -0.859375 13.203125 -1.257812 13.109375 -1.71875 L 10.203125 -12.046875 L 11.203125 -2 L 11.203125 -1.921875 C 11.203125 -1.378906 11.007812 -0.921875 10.625 -0.546875 C 10.238281 -0.179688 9.757812 0 9.1875 0 L 6.515625 0 C 6.109375 0 5.820312 -0.0820312 5.65625 -0.25 C 5.488281 -0.414062 5.40625 -0.703125 5.40625 -1.109375 L 5.40625 -28.25 C 5.40625 -28.632812 5.460938 -28.898438 5.578125 -29.046875 C 5.691406 -29.203125 5.96875 -29.28125 6.40625 -29.28125 Z M 6.40625 -29.28125 "/></g></g></g><g fill="#ffffff" fill-opacity="1"><g transform="translate(90.159896, 66.644588)"><g><path d="M 5.75 -29.28125 L 16.46875 -29.28125 C 16.800781 -29.28125 17.070312 -29.1875 17.28125 -29 C 17.5 -28.820312 17.609375 -28.566406 17.609375 -28.234375 L 17.609375 -27.359375 C 17.609375 -26.460938 17.390625 -25.757812 16.953125 -25.25 C 16.523438 -24.738281 15.921875 -24.484375 15.140625 -24.484375 L 14.109375 -24.484375 L 14.109375 -1.046875 C 14.109375 -0.640625 14.03125 -0.363281 13.875 -0.21875 C 13.726562 -0.0703125 13.460938 0 13.078125 0 L 9.375 0 C 8.957031 0 8.675781 -0.0703125 8.53125 -0.21875 C 8.394531 -0.363281 8.328125 -0.640625 8.328125 -1.046875 L 8.328125 -24.484375 L 7.078125 -24.484375 C 6.273438 -24.484375 5.664062 -24.738281 5.25 -25.25 C 4.832031 -25.757812 4.625 -26.460938 4.625 -27.359375 L 4.625 -28.234375 C 4.625 -28.566406 4.726562 -28.820312 4.9375 -29 C 5.15625 -29.1875 5.425781 -29.28125 5.75 -29.28125 Z M 5.75 -29.28125 "/></g></g></g><g fill="#ffffff" fill-opacity="1"><g transform="translate(111.475676, 66.644588)"><g><path d="M 11.234375 -12.109375 L 11.234375 -4.796875 L 13.65625 -4.796875 C 14.4375 -4.796875 15.039062 -4.539062 15.46875 -4.03125 C 15.90625 -3.519531 16.125 -2.816406 16.125 -1.921875 L 16.125 -1.046875 C 16.125 -0.710938 16.015625 -0.453125 15.796875 -0.265625 C 15.585938 -0.0859375 15.316406 0 14.984375 0 L 6.453125 0 C 6.054688 0 5.789062 -0.0703125 5.65625 -0.21875 C 5.519531 -0.375 5.453125 -0.648438 5.453125 -1.046875 L 5.453125 -28.1875 C 5.453125 -28.59375 5.519531 -28.875 5.65625 -29.03125 C 5.800781 -29.195312 6.078125 -29.28125 6.484375 -29.28125 L 14.984375 -29.28125 C 15.316406 -29.28125 15.585938 -29.1875 15.796875 -29 C 16.015625 -28.820312 16.125 -28.566406 16.125 -28.234375 L 16.125 -27.359375 C 16.125 -26.472656 15.90625 -25.769531 15.46875 -25.25 C 15.039062 -24.738281 14.4375 -24.484375 13.65625 -24.484375 L 11.234375 -24.484375 L 11.234375 -16.90625 L 14.078125 -16.90625 C 14.410156 -16.90625 14.679688 -16.8125 14.890625 -16.625 C 15.097656 -16.445312 15.203125 -16.191406 15.203125 -15.859375 L 15.203125 -14.984375 C 15.203125 -14.097656 14.988281 -13.394531 14.5625 -12.875 C 14.144531 -12.363281 13.546875 -12.109375 12.765625 -12.109375 Z M 11.234375 -12.109375 "/></g></g></g><g fill="#ffffff" fill-opacity="1"><g transform="translate(131.89839, 66.644588)"><g><path d="M 9.28125 0 L 6.46875 0 C 6.050781 0 5.769531 -0.078125 5.625 -0.234375 C 5.476562 -0.398438 5.40625 -0.6875 5.40625 -1.09375 L 5.40625 -28.1875 C 5.40625 -28.59375 5.476562 -28.875 5.625 -29.03125 C 5.769531 -29.195312 6.046875 -29.28125 6.453125 -29.28125 L 12.375 -29.28125 C 13.707031 -29.28125 14.878906 -29.019531 15.890625 -28.5 C 16.910156 -27.976562 17.707031 -27.285156 18.28125 -26.421875 C 18.863281 -25.554688 19.15625 -24.609375 19.15625 -23.578125 L 19.15625 -16.40625 C 19.15625 -15.550781 18.9375 -14.835938 18.5 -14.265625 C 18.070312 -13.703125 17.484375 -13.253906 16.734375 -12.921875 C 17.484375 -12.710938 18.070312 -12.375 18.5 -11.90625 C 18.9375 -11.445312 19.15625 -10.773438 19.15625 -9.890625 L 19.15625 -1.09375 C 19.15625 -0.6875 19.082031 -0.398438 18.9375 -0.234375 C 18.789062 -0.078125 18.503906 0 18.078125 0 L 15.25 0 C 14.769531 0 14.332031 -0.1875 13.9375 -0.5625 C 13.550781 -0.945312 13.359375 -1.40625 13.359375 -1.9375 L 13.359375 -9.84375 C 13.359375 -10.0625 13.25 -10.273438 13.03125 -10.484375 C 12.8125 -10.703125 12.554688 -10.8125 12.265625 -10.8125 L 11.203125 -10.8125 L 11.203125 -1.9375 C 11.203125 -1.40625 11.003906 -0.945312 10.609375 -0.5625 C 10.210938 -0.1875 9.769531 0 9.28125 0 Z M 12.265625 -24.484375 L 11.203125 -24.484375 L 11.203125 -15.578125 L 12.328125 -15.578125 C 12.578125 -15.578125 12.8125 -15.675781 13.03125 -15.875 C 13.25 -16.082031 13.359375 -16.28125 13.359375 -16.46875 L 13.359375 -23.53125 C 13.359375 -23.75 13.25 -23.960938 13.03125 -24.171875 C 12.8125 -24.378906 12.554688 -24.484375 12.265625 -24.484375 Z M 12.265625 -24.484375 "/></g></g></g><g fill="#ffffff" fill-opacity="1"><g transform="translate(155.588402, 66.644588)"><g><path d="M 5.40625 -1.03125 L 5.40625 -28.1875 C 5.40625 -28.59375 5.476562 -28.875 5.625 -29.03125 C 5.769531 -29.195312 6.046875 -29.28125 6.453125 -29.28125 L 9.28125 -29.28125 C 9.757812 -29.28125 10.195312 -29.085938 10.59375 -28.703125 C 11 -28.328125 11.203125 -27.875 11.203125 -27.34375 L 11.203125 -4.796875 L 13.609375 -4.796875 C 14.410156 -4.796875 15.019531 -4.546875 15.4375 -4.046875 C 15.863281 -3.546875 16.078125 -2.835938 16.078125 -1.921875 L 16.078125 -1.046875 C 16.078125 -0.710938 15.972656 -0.453125 15.765625 -0.265625 C 15.554688 -0.0859375 15.28125 0 14.9375 0 L 6.453125 0 C 6.046875 0 5.769531 -0.078125 5.625 -0.234375 C 5.476562 -0.398438 5.40625 -0.664062 5.40625 -1.03125 Z M 5.40625 -1.03125 "/></g></g></g><g fill="#ffffff" fill-opacity="1"><g transform="translate(175.967557, 66.644588)"><g><path d="M 11.234375 -12.109375 L 11.234375 -4.796875 L 13.65625 -4.796875 C 14.4375 -4.796875 15.039062 -4.539062 15.46875 -4.03125 C 15.90625 -3.519531 16.125 -2.816406 16.125 -1.921875 L 16.125 -1.046875 C 16.125 -0.710938 16.015625 -0.453125 15.796875 -0.265625 C 15.585938 -0.0859375 15.316406 0 14.984375 0 L 6.453125 0 C 6.054688 0 5.789062 -0.0703125 5.65625 -0.21875 C 5.519531 -0.375 5.453125 -0.648438 5.453125 -1.046875 L 5.453125 -28.1875 C 5.453125 -28.59375 5.519531 -28.875 5.65625 -29.03125 C 5.800781 -29.195312 6.078125 -29.28125 6.484375 -29.28125 L 14.984375 -29.28125 C 15.316406 -29.28125 15.585938 -29.1875 15.796875 -29 C 16.015625 -28.820312 16.125 -28.566406 16.125 -28.234375 L 16.125 -27.359375 C 16.125 -26.472656 15.90625 -25.769531 15.46875 -25.25 C 15.039062 -24.738281 14.4375 -24.484375 13.65625 -24.484375 L 11.234375 -24.484375 L 11.234375 -16.90625 L 14.078125 -16.90625 C 14.410156 -16.90625 14.679688 -16.8125 14.890625 -16.625 C 15.097656 -16.445312 15.203125 -16.191406 15.203125 -15.859375 L 15.203125 -14.984375 C 15.203125 -14.097656 14.988281 -13.394531 14.5625 -12.875 C 14.144531 -12.363281 13.546875 -12.109375 12.765625 -12.109375 Z M 11.234375 -12.109375 "/></g></g></g><g fill="#ffffff" fill-opacity="1"><g transform="translate(196.390271, 66.644588)"><g><path d="M 4.484375 -0.921875 C 4.484375 -0.972656 4.484375 -1.023438 4.484375 -1.078125 C 4.484375 -1.128906 4.492188 -1.179688 4.515625 -1.234375 L 6.921875 -14.640625 L 4.515625 -28.03125 C 4.492188 -28.09375 4.484375 -28.148438 4.484375 -28.203125 C 4.484375 -28.253906 4.484375 -28.304688 4.484375 -28.359375 C 4.484375 -28.648438 4.554688 -28.875 4.703125 -29.03125 C 4.859375 -29.195312 5.132812 -29.28125 5.53125 -29.28125 L 8.109375 -29.28125 C 8.421875 -29.28125 8.75 -29.191406 9.09375 -29.015625 C 9.4375 -28.835938 9.734375 -28.597656 9.984375 -28.296875 C 10.242188 -28.003906 10.378906 -27.671875 10.390625 -27.296875 L 11.046875 -16.421875 L 11.71875 -27.296875 C 11.75 -27.671875 11.882812 -28.003906 12.125 -28.296875 C 12.375 -28.597656 12.675781 -28.835938 13.03125 -29.015625 C 13.394531 -29.191406 13.726562 -29.28125 14.03125 -29.28125 L 16.59375 -29.28125 C 17.289062 -29.28125 17.640625 -28.96875 17.640625 -28.34375 C 17.640625 -28.300781 17.640625 -28.253906 17.640625 -28.203125 C 17.640625 -28.148438 17.632812 -28.09375 17.625 -28.03125 L 15.203125 -14.640625 L 17.625 -1.234375 C 17.632812 -1.179688 17.640625 -1.128906 17.640625 -1.078125 C 17.640625 -1.023438 17.640625 -0.976562 17.640625 -0.9375 C 17.640625 -0.3125 17.289062 0 16.59375 0 L 14.03125 0 C 13.726562 0 13.394531 -0.0820312 13.03125 -0.25 C 12.675781 -0.425781 12.375 -0.664062 12.125 -0.96875 C 11.882812 -1.269531 11.75 -1.609375 11.71875 -1.984375 L 11.046875 -12.859375 L 10.390625 -1.984375 C 10.378906 -1.609375 10.242188 -1.269531 9.984375 -0.96875 C 9.734375 -0.664062 9.4375 -0.425781 9.09375 -0.25 C 8.75 -0.0820312 8.421875 0 8.109375 0 L 5.53125 0 C 5.132812 0 4.859375 -0.0820312 4.703125 -0.25 C 4.554688 -0.414062 4.484375 -0.640625 4.484375 -0.921875 Z M 4.484375 -0.921875 "/></g></g></g></svg>